<svg id="visual" viewBox="0 0 1920 1080" width="1920" height="1080" xmlns="http://www.w3.org/2000/svg" xmlns:xlink="http://www.w3.org/1999/xlink" version="1.1"><path d="M0 765L80 727.7C160 690.3 320 615.7 480 593C640 570.3 800 599.7 960 651.3C1120 703 1280 777 1440 787.5C1600 798 1760 745 1840 718.5L1920 692L1920 0L1840 0C1760 0 1600 0 1440 0C1280 0 1120 0 960 0C800 0 640 0 480 0C320 0 160 0 80 0L0 0Z" fill="#4450ff"></path><path d="M0 583L80 587.5C160 592 320 601 480 578.3C640 555.7 800 501.3 960 475.7C1120 450 1280 453 1440 464.8C1600 476.7 1760 497.3 1840 507.7L1920 518L1920 0L1840 0C1760 0 1600 0 1440 0C1280 0 1120 0 960 0C800 0 640 0 480 0C320 0 160 0 80 0L0 0Z" fill="#393bd6"></path><path d="M0 492L80 502.2C160 512.3 320 532.7 480 512.3C640 492 800 431 960 433.2C1120 435.3 1280 500.7 1440 516.3C1600 532 1760 498 1840 481L1920 464L1920 0L1840 0C1760 0 1600 0 1440 0C1280 0 1120 0 960 0C800 0 640 0 480 0C320 0 160 0 80 0L0 0Z" fill="#2b27ae"></path><path d="M0 365L80 357.3C160 349.7 320 334.3 480 328.8C640 323.3 800 327.7 960 314.3C1120 301 1280 270 1440 276.8C1600 283.7 1760 328.3 1840 350.7L1920 373L1920 0L1840 0C1760 0 1600 0 1440 0C1280 0 1120 0 960 0C800 0 640 0 480 0C320 0 160 0 80 0L0 0Z" fill="#1c1488"></path><path d="M0 268L80 253.8C160 239.7 320 211.3 480 185.7C640 160 800 137 960 122C1120 107 1280 100 1440 101.3C1600 102.7 1760 112.3 1840 117.2L1920 122L1920 0L1840 0C1760 0 1600 0 1440 0C1280 0 1120 0 960 0C800 0 640 0 480 0C320 0 160 0 80 0L0 0Z" fill="#080265"></path></svg>